HIERARCHY
ROOT reference
{
  OFFSET 0 0 0
  CHANNELS 6 Xposition Yposition Zposition Zrotation Xrotation Yrotation
  JOINT Hips
  {
    OFFSET 340.57 87.5694 214.797
    CHANNELS 3 Zrotation Xrotation Yrotation
    JOINT RightUpLeg
    {
      OFFSET -9.35418 -1.55218 -0.019184
      CHANNELS 3 Zrotation Xrotation Yrotation
      JOINT RightLeg
      {
        OFFSET -0.0482219 -41.8948 0.0725956
        CHANNELS 3 Zrotation Xrotation Yrotation
        JOINT RightFoot
        {
          OFFSET -1.00159 -42.3965 -1.97064
          CHANNELS 3 Zrotation Xrotation Yrotation
          End Site
          {
            OFFSET 0 -7.69 17.5
          }
        }
      }
    }
    JOINT LeftUpLeg
    {
      OFFSET 9.33628 -1.64535 -0.0795185
      CHANNELS 3 Zrotation Xrotation Yrotation
      JOINT LeftLeg
      {
        OFFSET 0.124871 -41.8725 -0.08325
        CHANNELS 3 Zrotation Xrotation Yrotation
        JOINT LeftFoot
        {
          OFFSET 0.728222 -40.8097 2.1196
          CHANNELS 3 Zrotation Xrotation Yrotation
          End Site
          {
            OFFSET 0 -7.69 17.5
          }
        }
      }
    }
    JOINT Spine
    {
      OFFSET -0.0135102 14.2943 0.0647361
      CHANNELS 3 Zrotation Xrotation Yrotation
      JOINT Spine1
      {
        OFFSET 0.0181502 9.72385 0.0148045
        CHANNELS 3 Zrotation Xrotation Yrotation
        JOINT Spine2
        {
          OFFSET 0.0557859 10.1166 -0.00979693
          CHANNELS 3 Zrotation Xrotation Yrotation
          JOINT Spine3
          {
            OFFSET 0.0359868 9.71757 0.00306838
            CHANNELS 3 Zrotation Xrotation Yrotation
            JOINT Neck
            {
              OFFSET 0.139197 10.3803 0.0501204
              CHANNELS 3 Zrotation Xrotation Yrotation
              JOINT Head
              {
                OFFSET 0.148012 9.47645 -0.000545472
                CHANNELS 3 Zrotation Xrotation Yrotation
                End Site
                {
                  OFFSET 0 15.95 0
                }
              }
            }
            JOINT RightShoulder
            {
              OFFSET -3.16276 6.92807 0.0312834
              CHANNELS 3 Zrotation Xrotation Yrotation
              JOINT RightArm
              {
                OFFSET -12.7681 0.0492996 0.0890957
                CHANNELS 3 Zrotation Xrotation Yrotation
                JOINT RightForeArm
                {
                  OFFSET -26.4761 -0.090776 0.147076
                  CHANNELS 3 Zrotation Xrotation Yrotation
                  JOINT RightHand
                  {
                    OFFSET -25.9655 0.0607057 -0.248467
                    CHANNELS 3 Zrotation Xrotation Yrotation
                    JOINT RightHandThumb1
                    {
                      OFFSET -2.48905 0.190105 3.12053
                      CHANNELS 3 Zrotation Xrotation Yrotation
                      JOINT RightHandThumb2
                      {
                        OFFSET -3.68274 0 0
                        CHANNELS 3 Zrotation Xrotation Yrotation
                        JOINT RightHandThumb3
                        {
                          OFFSET -2.55832 0 0
                          CHANNELS 3 Zrotation Xrotation Yrotation
                          End Site
                          {
                            OFFSET -2.194 0 0
                          }
                        }
                      }
                    }
                    JOINT RightInHandIndex
                    {
                      OFFSET -3.22368 0.508421 1.97842
                      CHANNELS 3 Zrotation Xrotation Yrotation
                      JOINT RightHandIndex1
                      {
                        OFFSET -5.21684 -0.091368 0.999158
                        CHANNELS 3 Zrotation Xrotation Yrotation
                        JOINT RightHandIndex2
                        {
                          OFFSET -3.61937 0 0
                          CHANNELS 3 Zrotation Xrotation Yrotation
                          JOINT RightHandIndex3
                          {
                            OFFSET -2.0521 0 0
                            CHANNELS 3 Zrotation Xrotation Yrotation
                            End Site
                            {
                              OFFSET -1.805 0 0
                            }
                          }
                        }
                      }
                    }
                    JOINT RightInHandMiddle
                    {
                      OFFSET -3.38211 0.517263 0.756737
                      CHANNELS 3 Zrotation Xrotation Yrotation
                      JOINT RightHandMiddle1
                      {
                        OFFSET -5.17411 -0.084 0.313895
                        CHANNELS 3 Zrotation Xrotation Yrotation
                        JOINT RightHandMiddle2
                        {
                          OFFSET -3.94947 0 0
                          CHANNELS 3 Zrotation Xrotation Yrotation
                          JOINT RightHandMiddle3
                          {
                            OFFSET -2.47579 0 0
                            CHANNELS 3 Zrotation Xrotation Yrotation
                            End Site
                            {
                              OFFSET -1.975 0 0
                            }
                          }
                        }
                      }
                    }
                    JOINT RightInHandRing
                    {
                      OFFSET -3.36516 0.537895 -0.128947
                      CHANNELS 3 Zrotation Xrotation Yrotation
                      JOINT RightHandRing1
                      {
                        OFFSET -4.63474 -0.022105 -0.478947
                        CHANNELS 3 Zrotation Xrotation Yrotation
                        JOINT RightHandRing2
                        {
                          OFFSET -3.44238 0 0
                          CHANNELS 3 Zrotation Xrotation Yrotation
                          JOINT RightHandRing3
                          {
                            OFFSET -2.3881 0 0
                            CHANNELS 3 Zrotation Xrotation Yrotation
                            End Site
                            {
                              OFFSET -1.857 0 0
                            }
                          }
                        }
                      }
                    }
                    JOINT RightInHandPinky
                    {
                      OFFSET -3.16105 0.469368 -1.20179
                      CHANNELS 3 Zrotation Xrotation Yrotation
                      JOINT RightHandPinky1
                      {
                        OFFSET -4.14105 -0.022105 -1.09053
                        CHANNELS 3 Zrotation Xrotation Yrotation
                        JOINT RightHandPinky2
                        {
                          OFFSET -2.75653 0 0
                          CHANNELS 3 Zrotation Xrotation Yrotation
                          JOINT RightHandPinky3
                          {
                            OFFSET -1.74189 0 0
                            CHANNELS 3 Zrotation Xrotation Yrotation
                            End Site
                            {
                              OFFSET -1.645 0 0
                            }
                          }
                        }
                      }
                    }
                  }
                }
              }
            }
            JOINT LeftShoulder
            {
              OFFSET 3.20588 6.97332 0.0254387
              CHANNELS 3 Zrotation Xrotation Yrotation
              JOINT LeftArm
              {
                OFFSET 12.8648 0.0341024 0.0247643
                CHANNELS 3 Zrotation Xrotation Yrotation
                JOINT LeftForeArm
                {
                  OFFSET 26.5059 -0.0470976 -0.0807017
                  CHANNELS 3 Zrotation Xrotation Yrotation
                  JOINT LeftHand
                  {
                    OFFSET 26.0013 -0.0100885 -0.0649647
                    CHANNELS 3 Zrotation Xrotation Yrotation
                    JOINT LeftHandThumb1
                    {
                      OFFSET 2.48905 0.190105 3.12053
                      CHANNELS 3 Zrotation Xrotation Yrotation
                      JOINT LeftHandThumb2
                      {
                        OFFSET 3.68274 0 0
                        CHANNELS 3 Zrotation Xrotation Yrotation
                        JOINT LeftHandThumb3
                        {
                          OFFSET 2.55832 0 0
                          CHANNELS 3 Zrotation Xrotation Yrotation
                          End Site
                          {
                            OFFSET 2.194 0 0
                          }
                        }
                      }
                    }
                    JOINT LeftInHandIndex
                    {
                      OFFSET 3.22368 0.508421 1.97842
                      CHANNELS 3 Zrotation Xrotation Yrotation
                      JOINT LeftHandIndex1
                      {
                        OFFSET 5.21684 -0.091368 0.999158
                        CHANNELS 3 Zrotation Xrotation Yrotation
                        JOINT LeftHandIndex2
                        {
                          OFFSET 3.61937 0 0
                          CHANNELS 3 Zrotation Xrotation Yrotation
                          JOINT LeftHandIndex3
                          {
                            OFFSET 2.0521 0 0
                            CHANNELS 3 Zrotation Xrotation Yrotation
                            End Site
                            {
                              OFFSET 1.805 0 0
                            }
                          }
                        }
                      }
                    }
                    JOINT LeftInHandMiddle
                    {
                      OFFSET 3.38211 0.517263 0.756737
                      CHANNELS 3 Zrotation Xrotation Yrotation
                      JOINT LeftHandMiddle1
                      {
                        OFFSET 5.17411 -0.084 0.313895
                        CHANNELS 3 Zrotation Xrotation Yrotation
                        JOINT LeftHandMiddle2
                        {
                          OFFSET 3.94947 0 0
                          CHANNELS 3 Zrotation Xrotation Yrotation
                          JOINT LeftHandMiddle3
                          {
                            OFFSET 2.47579 0 0
                            CHANNELS 3 Zrotation Xrotation Yrotation
                            End Site
                            {
                              OFFSET 1.975 0 0
                            }
                          }
                        }
                      }
                    }
                    JOINT LeftInHandRing
                    {
                      OFFSET 3.36516 0.537895 -0.128947
                      CHANNELS 3 Zrotation Xrotation Yrotation
                      JOINT LeftHandRing1
                      {
                        OFFSET 4.63474 -0.022105 -0.478947
                        CHANNELS 3 Zrotation Xrotation Yrotation
                        JOINT LeftHandRing2
                        {
                          OFFSET 3.44238 0 0
                          CHANNELS 3 Zrotation Xrotation Yrotation
                          JOINT LeftHandRing3
                          {
                            OFFSET 2.3881 0 0
                            CHANNELS 3 Zrotation Xrotation Yrotation
                            End Site
                            {
                              OFFSET 1.857 0 0
                            }
                          }
                        }
                      }
                    }
                    JOINT LeftInHandPinky
                    {
                      OFFSET 3.16105 0.469368 -1.20179
                      CHANNELS 3 Zrotation Xrotation Yrotation
                      JOINT LeftHandPinky1
                      {
                        OFFSET 4.14105 -0.022105 -1.09053
                        CHANNELS 3 Zrotation Xrotation Yrotation
                        JOINT LeftHandPinky2
                        {
                          OFFSET 2.75653 0 0
                          CHANNELS 3 Zrotation Xrotation Yrotation
                          JOINT LeftHandPinky3
                          {
                            OFFSET 1.74189 0 0
                            CHANNELS 3 Zrotation Xrotation Yrotation
                            End Site
                            {
                              OFFSET 1.645 0 0
                            }
                          }
                        }
                      }
                    }
                  }
                }
              }
            }
          }
        }
      }
    }
  }
}
MOTION
Frames: 2
Frame Time: 0.00833333
1.500000000000000000e+02 0.000000000000000000e+00 0.000000000000000000e+00 0.000000000000000000e+00 0.000000000000000000e+00 -0.000000000000000000e+00 -3.886581666165562013e-03 6.149520360764658064e-03 1.297343057061513608e-02 -6.336256061798931603e-03 4.329373783940410059e-03 -2.041462367490047905e-02 -2.953477418636531616e-03 5.643054823109900330e-03 5.711786946495846923e-04 5.548476053299991476e-04 -6.187337079463102116e-03 3.029721300831525899e-03 -2.535058288466836545e-03 2.613260157553107775e-03 -4.450634041355769344e-02 -2.139539283690902044e-02 -6.443060669668513804e-03 4.322360816221787472e-02 -4.124327570120268059e-04 3.427130562652690084e-03 -6.608650264313170944e-03 -2.960653205147065290e-03 5.095400733651399110e-03 1.310704099960605107e-02 -3.638213052027798361e-04 1.647734357279799803e-03 3.286681757127164413e-03 -5.574940855131545669e-04 2.563121299578329394e-03 5.128077082317763699e-03 5.431191689581236440e-04 -1.887421711878234821e-04 -1.272086975756460620e-03 5.441634303617753649e-04 -1.970387533976518748e-04 -1.279324508156169139e-03 8.581982874055938890e-03 -5.545016065882871041e-03 -2.282636533851572364e-02 -1.220570805302796701e-03 -1.156874277010150852e-02 -2.750897697690137412e-03 -8.661735450287945393e-02 1.548067350572111811e-01 1.432029496897127552e-01 -1.068200048703410315e-01 -2.173857132139259685e-01 -5.174589540174096003e-02 -9.299722127295356744e-02 1.123643509220611514e-01 -1.502236614945537674e-01 0.000000000000000000e+00 0.000000000000000000e+00 0.000000000000000000e+00 -8.946063443754265800e-15 3.740458470457595651e-15 0.000000000000000000e+00 4.175930949462193588e-14 -2.254203295809331476e-15 0.000000000000000000e+00 5.441146099891293770e-15 1.138488906511766814e-15 -8.907897205217163903e-16 0.000000000000000000e+00 0.000000000000000000e+00 0.000000000000000000e+00 0.000000000000000000e+00 3.357719730873254141e-15 2.631778996816538764e-14 0.000000000000000000e+00 -3.216726036436701913e-15 7.319358595715900871e-15 5.441146099891293770e-15 1.138488906511766814e-15 -8.907897205217163903e-16 0.000000000000000000e+00 3.550490138271079792e-15 9.946143921048465189e-15 0.000000000000000000e+00 7.757431788249850539e-15 2.140679076380600534e-14 0.000000000000000000e+00 1.222381898933335819e-15 6.568800103852036739e-15 5.441146099891293770e-15 1.138488906511766814e-15 -8.907897205217163903e-16 0.000000000000000000e+00 0.000000000000000000e+00 0.000000000000000000e+00 0.000000000000000000e+00 3.325938063405454663e-15 2.300944302699475438e-14 0.000000000000000000e+00 4.441134380169017045e-15 1.587828956185983383e-14 5.441146099891293770e-15 1.138488906511766814e-15 -8.907897205217163903e-16 0.000000000000000000e+00 0.000000000000000000e+00 0.000000000000000000e+00 0.000000000000000000e+00 2.878390677473467546e-15 1.739047701644605054e-14 0.000000000000000000e+00 5.868507372363245893e-15 1.426750320122013770e-14 7.109700489651361865e-02 -7.958176052807831857e-02 -1.821517750419985593e-01 -1.976903830330092315e-01 -3.373689064186867481e-02 1.804072087346519082e-01 3.960099258110806597e-02 -6.161704826531168994e-02 3.935877790181241398e-02 -6.468756261043552558e-02 -2.671917800426545364e-01 -1.149810312947484453e-01 0.000000000000000000e+00 0.000000000000000000e+00 0.000000000000000000e+00 -3.319744824376977478e-15 -7.780181676263001645e-15 0.000000000000000000e+00 4.580315099876141285e-15 -1.733836101382906792e-15 0.000000000000000000e+00 -1.418917674117413953e-15 8.771990208307907498e-16 -1.449520915567106600e-16 0.000000000000000000e+00 0.000000000000000000e+00 0.000000000000000000e+00 0.000000000000000000e+00 -3.009788998034732645e-15 -6.725810792426522914e-15 0.000000000000000000e+00 4.877059610866035644e-16 -3.223535896024097122e-15 -1.418917674117413953e-15 8.771990208307907498e-16 -1.449520915567106600e-16 0.000000000000000000e+00 2.156965154018984221e-17 -1.701178657008451314e-15 0.000000000000000000e+00 -1.834671763948385274e-15 3.082880348976006924e-15 0.000000000000000000e+00 2.627054777396542754e-16 -7.924717059113211928e-15 -1.418917674117413953e-15 8.771990208307907498e-16 -1.449520915567106600e-16 0.000000000000000000e+00 0.000000000000000000e+00 0.000000000000000000e+00 0.000000000000000000e+00 8.560737396764304989e-16 -1.705010754922324547e-15 0.000000000000000000e+00 1.854564167239047518e-16 -6.136614858821762924e-15 -1.418917674117413953e-15 8.771990208307907498e-16 -1.449520915567106600e-16 0.000000000000000000e+00 0.000000000000000000e+00 0.000000000000000000e+00 0.000000000000000000e+00 -5.808552109709163257e-15 3.344871281374788549e-15 0.000000000000000000e+00 -6.608999236833838173e-16 -3.914460326470971625e-15
1.500000000000000000e+02 0.000000000000000000e+00 0.000000000000000000e+00 0.000000000000000000e+00 0.000000000000000000e+00 -0.000000000000000000e+00 3.452285043813791386e-03 -5.512190355034530566e-03 -1.118973621765000093e-02 5.573699245154458901e-03 -3.959686934529112537e-03 1.777722372791800537e-02 2.219526315405275126e-03 -4.962567215901463567e-03 -5.191420357173926912e-04 -3.696135347966721975e-04 5.336515900872984726e-03 -2.612658914093911149e-03 1.231195679316199896e-03 -4.007968545788258112e-03 4.585730243229687447e-02 2.370426458043277049e-02 6.834902425599923698e-03 -4.639956212333072594e-02 6.575796500076643795e-04 -2.852146472247114525e-03 5.651523211334375657e-03 1.858304128416185530e-03 -4.541988387748930461e-03 -1.025973616417690491e-02 1.546169725430614629e-04 -1.390094205587207336e-03 -2.591095165455780443e-03 2.249850886045385028e-04 -2.146518393725773376e-03 -4.059715587707911182e-03 -4.228176906349930160e-04 6.814356182690746737e-05 9.095856442203249532e-04 -4.232303230783046946e-04 7.618034326465622096e-05 9.149688825848488992e-04 -6.929878210067530638e-03 2.295184765291838607e-03 1.638162464941141094e-02 2.544514020653511344e-03 9.610565777805170698e-03 -1.342911833829272573e-03 8.397832693671089532e-02 -1.509201157219058342e-01 -1.415345679801023604e-01 1.055843740925478530e-01 2.118478562951374156e-01 5.243173438734552438e-02 7.764588959998218465e-02 -9.424001646400981258e-02 1.237941728994264301e-01 0.000000000000000000e+00 0.000000000000000000e+00 0.000000000000000000e+00 8.065162903775870652e-15 -3.247494730906300775e-15 0.000000000000000000e+00 -3.741405411158973681e-14 2.012107407406782224e-15 0.000000000000000000e+00 -5.013244746150778576e-15 -1.242257601911319484e-15 9.099021027190594456e-16 0.000000000000000000e+00 0.000000000000000000e+00 0.000000000000000000e+00 0.000000000000000000e+00 -3.201705829244862184e-15 -2.399798632619662385e-14 0.000000000000000000e+00 2.920791439014145947e-15 -6.899961995068105362e-15 -5.013244746150778576e-15 -1.242257601911319484e-15 9.099021027190594456e-16 0.000000000000000000e+00 -3.430566677261647902e-15 -9.256762469055339572e-15 0.000000000000000000e+00 -7.233816839439441998e-15 -1.925719527762474127e-14 0.000000000000000000e+00 -1.576835159389432195e-15 -5.629717224041525328e-15 -5.013244746150778576e-15 -1.242257601911319484e-15 9.099021027190594456e-16 0.000000000000000000e+00 0.000000000000000000e+00 0.000000000000000000e+00 0.000000000000000000e+00 -2.799900384540998057e-15 -2.112883597309839984e-14 0.000000000000000000e+00 -4.518104985949011189e-15 -1.481303886334870587e-14 -5.013244746150778576e-15 -1.242257601911319484e-15 9.099021027190594456e-16 0.000000000000000000e+00 0.000000000000000000e+00 0.000000000000000000e+00 0.000000000000000000e+00 -2.931918952218155691e-15 -1.529539593682316321e-14 0.000000000000000000e+00 -5.609927420105906645e-15 -1.268469210942205235e-14 -6.684092972207804351e-02 7.464214024455437246e-02 1.752170583979087148e-01 1.908205483160082816e-01 3.328873357818280809e-02 -1.759835553626813986e-01 -3.962816536501877901e-02 5.565802638725578233e-02 -3.840808210911150072e-02 5.657778783070774309e-02 2.422904101870373972e-01 1.028934605505638783e-01 0.000000000000000000e+00 0.000000000000000000e+00 0.000000000000000000e+00 3.010774070512259321e-15 7.045016308676630725e-15 0.000000000000000000e+00 -3.829980005942235941e-15 1.525762172164079134e-15 0.000000000000000000e+00 1.476072791030404033e-15 -9.507217509667946702e-16 4.407231626411005555e-17 0.000000000000000000e+00 0.000000000000000000e+00 0.000000000000000000e+00 0.000000000000000000e+00 3.061005534876150841e-15 6.339716765635829176e-15 0.000000000000000000e+00 -2.863697994775990459e-16 1.294461417370899241e-15 1.476072791030404033e-15 -9.507217509667946702e-16 4.407231626411005555e-17 0.000000000000000000e+00 -7.928400762214657840e-16 1.002505028557416868e-15 0.000000000000000000e+00 1.653044946065008403e-15 -3.299798418924277306e-15 0.000000000000000000e+00 6.674601806672290258e-17 5.692256070147747971e-15 1.476072791030404033e-15 -9.507217509667946702e-16 4.407231626411005555e-17 0.000000000000000000e+00 0.000000000000000000e+00 0.000000000000000000e+00 0.000000000000000000e+00 -6.076739316887382590e-16 1.946443233441926684e-15 0.000000000000000000e+00 -3.251624029215964838e-17 5.067888963190398628e-15 1.476072791030404033e-15 -9.507217509667946702e-16 4.407231626411005555e-17 0.000000000000000000e+00 0.000000000000000000e+00 0.000000000000000000e+00 0.000000000000000000e+00 5.097516064801184932e-15 -3.280757429413175204e-15 0.000000000000000000e+00 1.028387499207795892e-15 2.343347597012891549e-15
